<svg width="6" height="10" viewBox="0 0 6 10" fill="none" xmlns="http://www.w3.org/2000/svg">
<path d="M0.25004 9.41666C0.0972626 9.26388 0.020874 9.06943 0.020874 8.83332C0.020874 8.59721 0.0972626 8.40277 0.25004 8.24999L3.50004 4.99999L0.25004 1.74999C0.0972626 1.59721 0.020874 1.40277 0.020874 1.16666C0.020874 0.930545 0.0972626 0.736101 0.25004 0.583323C0.402818 0.430545 0.597262 0.354156 0.833374 0.354156C1.06948 0.354156 1.26393 0.430545 1.41671 0.583323L5.25004 4.41666C5.33337 4.49999 5.39254 4.59027 5.42754 4.68749C5.46199 4.78471 5.47921 4.88888 5.47921 4.99999C5.47921 5.1111 5.46199 5.21527 5.42754 5.31249C5.39254 5.40971 5.33337 5.49999 5.25004 5.58332L1.41671 9.41666C1.26393 9.56943 1.06948 9.64582 0.833374 9.64582C0.597262 9.64582 0.402818 9.56943 0.25004 9.41666Z" fill="#EEF0F4"/>
</svg>
