<svg width="16" height="16" viewBox="0 0 16 16" fill="none" xmlns="http://www.w3.org/2000/svg">
<mask id="mask0_826_6801" style="mask-type:alpha" maskUnits="userSpaceOnUse" x="0" y="0" width="16" height="16">
<rect width="16" height="16" fill="#D9D9D9"/>
</mask>
<g mask="url(#mask0_826_6801)">
<path d="M9.99998 10.6667C10.1889 10.6667 10.3473 10.6027 10.4753 10.4747C10.6029 10.3471 10.6666 10.1889 10.6666 10V9.33333H11.3333C11.5222 9.33333 11.6804 9.26933 11.808 9.14133C11.936 9.01377 12 8.85555 12 8.66666C12 8.47778 11.936 8.31933 11.808 8.19133C11.6804 8.06377 11.5222 8 11.3333 8H10.6666V7.33333C10.6666 7.14444 10.6029 6.986 10.4753 6.858C10.3473 6.73044 10.1889 6.66666 9.99998 6.66666C9.81109 6.66666 9.65287 6.73044 9.52531 6.858C9.39731 6.986 9.33331 7.14444 9.33331 7.33333V8H8.66665C8.47776 8 8.31953 8.06377 8.19198 8.19133C8.06398 8.31933 7.99998 8.47778 7.99998 8.66666C7.99998 8.85555 8.06398 9.01377 8.19198 9.14133C8.31953 9.26933 8.47776 9.33333 8.66665 9.33333H9.33331V10C9.33331 10.1889 9.39731 10.3471 9.52531 10.4747C9.65287 10.6027 9.81109 10.6667 9.99998 10.6667ZM2.66665 13.3333C2.29998 13.3333 1.9862 13.2029 1.72531 12.942C1.46398 12.6807 1.33331 12.3667 1.33331 12V4C1.33331 3.63333 1.46398 3.31955 1.72531 3.05866C1.9862 2.79733 2.29998 2.66666 2.66665 2.66666H6.11665C6.29442 2.66666 6.46398 2.7 6.62531 2.76666C6.7862 2.83333 6.92776 2.92778 7.04998 3.05L7.99998 4H13.3333C13.7 4 14.014 4.13066 14.2753 4.392C14.5362 4.65289 14.6666 4.96666 14.6666 5.33333V12C14.6666 12.3667 14.5362 12.6807 14.2753 12.942C14.014 13.2029 13.7 13.3333 13.3333 13.3333H2.66665Z" fill="#586A84"/>
</g>
</svg>
