<svg width="16" height="16" viewBox="0 0 16 16" fill="none" xmlns="http://www.w3.org/2000/svg">
<mask id="mask0_826_6794" style="mask-type:alpha" maskUnits="userSpaceOnUse" x="0" y="0" width="16" height="16">
<rect width="16" height="16" fill="#D9D9D9"/>
</mask>
<g mask="url(#mask0_826_6794)">
<path d="M1.33331 8.66666V5.33333C1.33331 4.96666 1.46398 4.65288 1.72531 4.39199C1.9862 4.13066 2.29998 3.99999 2.66665 3.99999H5.33331V2.66666C5.33331 2.29999 5.46398 1.98599 5.72531 1.72466C5.9862 1.46377 6.29998 1.33333 6.66665 1.33333H9.33331C9.69998 1.33333 10.014 1.46377 10.2753 1.72466C10.5362 1.98599 10.6666 2.29999 10.6666 2.66666V3.99999H13.3333C13.7 3.99999 14.014 4.13066 14.2753 4.39199C14.5362 4.65288 14.6666 4.96666 14.6666 5.33333V8.66666H9.99998V7.99999C9.99998 7.81111 9.9362 7.65266 9.80865 7.52466C9.68065 7.39711 9.5222 7.33333 9.33331 7.33333H6.66665C6.47776 7.33333 6.31953 7.39711 6.19198 7.52466C6.06398 7.65266 5.99998 7.81111 5.99998 7.99999V8.66666H1.33331ZM6.66665 3.99999H9.33331V2.66666H6.66665V3.99999ZM7.33331 9.99999V8.66666H8.66665V9.99999H7.33331ZM2.66665 14C2.29998 14 1.9862 13.8695 1.72531 13.6087C1.46398 13.3473 1.33331 13.0333 1.33331 12.6667V9.99999H5.99998V10.6667C5.99998 10.8555 6.06398 11.0138 6.19198 11.1413C6.31953 11.2693 6.47776 11.3333 6.66665 11.3333H9.33331C9.5222 11.3333 9.68065 11.2693 9.80865 11.1413C9.9362 11.0138 9.99998 10.8555 9.99998 10.6667V9.99999H14.6666V12.6667C14.6666 13.0333 14.5362 13.3473 14.2753 13.6087C14.014 13.8695 13.7 14 13.3333 14H2.66665Z" fill="#586A84"/>
</g>
</svg>
