<svg width="12" height="12" viewBox="0 0 12 12" fill="none" xmlns="http://www.w3.org/2000/svg">
<path d="M6 8.38332C5.91111 8.38332 5.82778 8.36932 5.75 8.34132C5.67222 8.31377 5.6 8.26666 5.53333 8.19999L3.13333 5.79999C3.01111 5.67777 2.95 5.52221 2.95 5.33332C2.95 5.14443 3.01111 4.98888 3.13333 4.86666C3.25556 4.74443 3.41378 4.68043 3.608 4.67466C3.80267 4.66932 3.96111 4.72777 4.08333 4.84999L5.33333 6.09999V1.33332C5.33333 1.14443 5.39734 0.98599 5.52533 0.85799C5.65289 0.730434 5.81111 0.666656 6 0.666656C6.18889 0.666656 6.34733 0.730434 6.47534 0.85799C6.60289 0.98599 6.66667 1.14443 6.66667 1.33332V6.09999L7.91667 4.84999C8.03889 4.72777 8.19734 4.66932 8.392 4.67466C8.58622 4.68043 8.74445 4.74443 8.86667 4.86666C8.98889 4.98888 9.05 5.14443 9.05 5.33332C9.05 5.52221 8.98889 5.67777 8.86667 5.79999L6.46667 8.19999C6.4 8.26666 6.32778 8.31377 6.25 8.34132C6.17222 8.36932 6.08889 8.38332 6 8.38332ZM2 11.3333C1.63333 11.3333 1.31956 11.2029 1.05867 10.942C0.797334 10.6807 0.666668 10.3667 0.666668 9.99999V8.66666C0.666668 8.47777 0.730446 8.31932 0.858001 8.19132C0.986001 8.06377 1.14445 7.99999 1.33333 7.99999C1.52222 7.99999 1.68067 8.06377 1.80867 8.19132C1.93622 8.31932 2 8.47777 2 8.66666V9.99999H10V8.66666C10 8.47777 10.064 8.31932 10.192 8.19132C10.3196 8.06377 10.4778 7.99999 10.6667 7.99999C10.8556 7.99999 11.0138 8.06377 11.1413 8.19132C11.2693 8.31932 11.3333 8.47777 11.3333 8.66666V9.99999C11.3333 10.3667 11.2029 10.6807 10.942 10.942C10.6807 11.2029 10.3667 11.3333 10 11.3333H2Z" fill="#BAC4D1"/>
</svg>
