<svg width="40" height="40" viewBox="0 0 40 40" fill="none" xmlns="http://www.w3.org/2000/svg">
<rect x="0.5" y="0.5" width="39" height="39" rx="7.5" stroke="#99A8C5"/>
<g clip-path="url(#clip0_826_6813)">
<path opacity="0.16" d="M14.1001 18.8568C14.6574 16.7789 16.7936 14.644 18.8702 14.0866L31.8214 10.6161C33.898 10.06 35.1306 11.2926 34.5745 13.3692L31.1027 26.3204C30.5454 28.3983 28.4092 30.5332 26.3326 31.0905L13.3826 34.5611C11.306 35.1171 10.0735 33.8846 10.6295 31.808L14.1001 18.8568Z" fill="#6366F1" fill-opacity="0.96"/>
<path d="M8.90601 13.6646C9.46209 11.5868 11.597 9.45183 13.6749 8.89451L26.6261 5.42398C28.7027 4.8679 29.9365 6.10046 29.3792 8.17707L25.9086 21.1283C25.3513 23.2061 23.2164 25.3411 21.1385 25.8984L8.18732 29.3689C6.11071 29.925 4.87815 28.6924 5.43423 26.6158L8.90601 13.6646Z" fill="#6366F1" fill-opacity="0.96"/>
</g>
<defs>
<clipPath id="clip0_826_6813">
<rect width="29.79" height="29.79" fill="white" transform="translate(5.10938 5.1001)"/>
</clipPath>
</defs>
</svg>
