<svg width="16" height="16" viewBox="0 0 16 16" fill="none" xmlns="http://www.w3.org/2000/svg">
<mask id="mask0_826_6694" style="mask-type:alpha" maskUnits="userSpaceOnUse" x="0" y="0" width="16" height="16">
<rect width="16" height="16" fill="#D9D9D9"/>
</mask>
<g mask="url(#mask0_826_6694)">
<path d="M7.99999 11.3333C8.18888 11.3333 8.34733 11.2693 8.47533 11.1413C8.60288 11.0138 8.66666 10.8556 8.66666 10.6667V8.66668H10.6833C10.8722 8.66668 11.0278 8.60268 11.15 8.47468C11.2722 8.34712 11.3333 8.1889 11.3333 8.00001C11.3333 7.81112 11.2693 7.65268 11.1413 7.52468C11.0138 7.39712 10.8555 7.33334 10.6667 7.33334H8.66666V5.31668C8.66666 5.12779 8.60288 4.97223 8.47533 4.85001C8.34733 4.72779 8.18888 4.66668 7.99999 4.66668C7.81111 4.66668 7.65288 4.73045 7.52533 4.85801C7.39733 4.98601 7.33333 5.14445 7.33333 5.33334V7.33334H5.31666C5.12777 7.33334 4.97222 7.39712 4.84999 7.52468C4.72777 7.65268 4.66666 7.81112 4.66666 8.00001C4.66666 8.1889 4.73044 8.34712 4.85799 8.47468C4.98599 8.60268 5.14444 8.66668 5.33333 8.66668H7.33333V10.6833C7.33333 10.8722 7.39733 11.0278 7.52533 11.15C7.65288 11.2722 7.81111 11.3333 7.99999 11.3333ZM7.99999 14.6667C7.07777 14.6667 6.21111 14.4916 5.39999 14.1413C4.58888 13.7916 3.88333 13.3167 3.28333 12.7167C2.68333 12.1167 2.20844 11.4111 1.85866 10.6C1.50844 9.7889 1.33333 8.92223 1.33333 8.00001C1.33333 7.07779 1.50844 6.21112 1.85866 5.40001C2.20844 4.5889 2.68333 3.88334 3.28333 3.28334C3.88333 2.68334 4.58888 2.20823 5.39999 1.85801C6.21111 1.50823 7.07777 1.33334 7.99999 1.33334C8.92222 1.33334 9.78888 1.50823 10.6 1.85801C11.4111 2.20823 12.1167 2.68334 12.7167 3.28334C13.3167 3.88334 13.7915 4.5889 14.1413 5.40001C14.4915 6.21112 14.6667 7.07779 14.6667 8.00001C14.6667 8.92223 14.4915 9.7889 14.1413 10.6C13.7915 11.4111 13.3167 12.1167 12.7167 12.7167C12.1167 13.3167 11.4111 13.7916 10.6 14.1413C9.78888 14.4916 8.92222 14.6667 7.99999 14.6667ZM7.99999 13.3333C9.47777 13.3333 10.7362 12.814 11.7753 11.7753C12.814 10.7362 13.3333 9.47779 13.3333 8.00001C13.3333 6.52223 12.814 5.26379 11.7753 4.22468C10.7362 3.18601 9.47777 2.66668 7.99999 2.66668C6.52222 2.66668 5.26399 3.18601 4.22533 4.22468C3.18622 5.26379 2.66666 6.52223 2.66666 8.00001C2.66666 9.47779 3.18622 10.7362 4.22533 11.7753C5.26399 12.814 6.52222 13.3333 7.99999 13.3333Z" fill="white"/>
</g>
</svg>
