<svg width="16" height="16" viewBox="0 0 16 16" fill="none" xmlns="http://www.w3.org/2000/svg">
<mask id="mask0_826_6808" style="mask-type:alpha" maskUnits="userSpaceOnUse" x="0" y="0" width="16" height="16">
<rect width="16" height="16" fill="#D9D9D9"/>
</mask>
<g mask="url(#mask0_826_6808)">
<path d="M4.00002 14.6667C3.63335 14.6667 3.31958 14.5362 3.05869 14.2753C2.79735 14.014 2.66669 13.7 2.66669 13.3333V6.66667C2.66669 6.3 2.79735 5.986 3.05869 5.72467C3.31958 5.46378 3.63335 5.33333 4.00002 5.33333H4.66669V4C4.66669 3.07778 4.9918 2.29156 5.64202 1.64133C6.2918 0.991557 7.0778 0.666668 8.00002 0.666668C8.92224 0.666668 9.70846 0.991557 10.3587 1.64133C11.0085 2.29156 11.3334 3.07778 11.3334 4V5.33333H12C12.3667 5.33333 12.6807 5.46378 12.942 5.72467C13.2029 5.986 13.3334 6.3 13.3334 6.66667V13.3333C13.3334 13.7 13.2029 14.014 12.942 14.2753C12.6807 14.5362 12.3667 14.6667 12 14.6667H4.00002ZM8.00002 11.3333C8.36669 11.3333 8.68069 11.2029 8.94202 10.942C9.20291 10.6807 9.33335 10.3667 9.33335 10C9.33335 9.63334 9.20291 9.31933 8.94202 9.058C8.68069 8.79711 8.36669 8.66667 8.00002 8.66667C7.63335 8.66667 7.31958 8.79711 7.05869 9.058C6.79735 9.31933 6.66669 9.63334 6.66669 10C6.66669 10.3667 6.79735 10.6807 7.05869 10.942C7.31958 11.2029 7.63335 11.3333 8.00002 11.3333ZM6.00002 5.33333H10V4C10 3.44445 9.80558 2.97222 9.41669 2.58333C9.0278 2.19445 8.55558 2 8.00002 2C7.44446 2 6.97224 2.19445 6.58335 2.58333C6.19446 2.97222 6.00002 3.44445 6.00002 4V5.33333Z" fill="#586A84"/>
</g>
</svg>
