<svg width="20" height="20" viewBox="0 0 20 20" fill="none" xmlns="http://www.w3.org/2000/svg">
<mask id="mask0_844_15882"  maskUnits="userSpaceOnUse" x="0" y="0" width="20" height="20">
<rect width="20" height="20" fill="#D9D9D9"/>
</mask>
<g mask="url(#mask0_844_15882)">
<path d="M10.0003 13.334C11.042 13.334 11.9275 12.9695 12.657 12.2407C13.3859 11.5112 13.7503 10.6257 13.7503 9.58398C13.7503 8.54232 13.3859 7.65676 12.657 6.92732C11.9275 6.19843 11.042 5.83398 10.0003 5.83398C8.95866 5.83398 8.0731 6.19843 7.34366 6.92732C6.61477 7.65676 6.25033 8.54232 6.25033 9.58398C6.25033 10.6257 6.61477 11.5112 7.34366 12.2407C8.0731 12.9695 8.95866 13.334 10.0003 13.334ZM10.0003 11.834C9.37533 11.834 8.84421 11.6151 8.40699 11.1773C7.96921 10.7401 7.75033 10.209 7.75033 9.58398C7.75033 8.95898 7.96921 8.4276 8.40699 7.98982C8.84421 7.5526 9.37533 7.33398 10.0003 7.33398C10.6253 7.33398 11.1567 7.5526 11.5945 7.98982C12.0317 8.4276 12.2503 8.95898 12.2503 9.58398C12.2503 10.209 12.0317 10.7401 11.5945 11.1773C11.1567 11.6151 10.6253 11.834 10.0003 11.834ZM10.0003 15.834C8.06977 15.834 6.30588 15.3237 4.70866 14.3032C3.11144 13.282 1.9031 11.9034 1.08366 10.1673C1.04199 10.0979 1.01421 10.0109 1.00033 9.90648C0.986437 9.8026 0.979492 9.6951 0.979492 9.58398C0.979492 9.47287 0.986437 9.3651 1.00033 9.26065C1.01421 9.15676 1.04199 9.0701 1.08366 9.00065C1.9031 7.26454 3.11144 5.88621 4.70866 4.86565C6.30588 3.84454 8.06977 3.33398 10.0003 3.33398C11.9309 3.33398 13.6948 3.84454 15.292 4.86565C16.8892 5.88621 18.0975 7.26454 18.917 9.00065C18.9587 9.0701 18.9864 9.15676 19.0003 9.26065C19.0142 9.3651 19.0212 9.47287 19.0212 9.58398C19.0212 9.6951 19.0142 9.8026 19.0003 9.90648C18.9864 10.0109 18.9587 10.0979 18.917 10.1673C18.0975 11.9034 16.8892 13.282 15.292 14.3032C13.6948 15.3237 11.9309 15.834 10.0003 15.834Z" fill="#EEF0F4"/>
</g>
</svg>
