<svg width="14" height="13" viewBox="0 0 14 13" fill="none" xmlns="http://www.w3.org/2000/svg">
<path d="M0.333008 7.66536V4.33203C0.333008 3.96536 0.463675 3.65159 0.725008 3.3907C0.985897 3.12936 1.29967 2.9987 1.66634 2.9987H4.33301V1.66536C4.33301 1.2987 4.46367 0.984698 4.72501 0.723365C4.9859 0.462476 5.29967 0.332031 5.66634 0.332031H8.33301C8.69967 0.332031 9.01367 0.462476 9.27501 0.723365C9.5359 0.984698 9.66634 1.2987 9.66634 1.66536V2.9987H12.333C12.6997 2.9987 13.0137 3.12936 13.275 3.3907C13.5359 3.65159 13.6663 3.96536 13.6663 4.33203V7.66536H8.99967V6.9987C8.99967 6.80981 8.9359 6.65136 8.80834 6.52336C8.68034 6.39581 8.5219 6.33203 8.33301 6.33203H5.66634C5.47745 6.33203 5.31923 6.39581 5.19167 6.52336C5.06367 6.65136 4.99967 6.80981 4.99967 6.9987V7.66536H0.333008ZM5.66634 2.9987H8.33301V1.66536H5.66634V2.9987ZM6.33301 8.9987V7.66536H7.66634V8.9987H6.33301ZM1.66634 12.9987C1.29967 12.9987 0.985897 12.8683 0.725008 12.6074C0.463675 12.346 0.333008 12.032 0.333008 11.6654V8.9987H4.99967V9.66536C4.99967 9.85425 5.06367 10.0125 5.19167 10.14C5.31923 10.268 5.47745 10.332 5.66634 10.332H8.33301C8.5219 10.332 8.68034 10.268 8.80834 10.14C8.9359 10.0125 8.99967 9.85425 8.99967 9.66536V8.9987H13.6663V11.6654C13.6663 12.032 13.5359 12.346 13.275 12.6074C13.0137 12.8683 12.6997 12.9987 12.333 12.9987H1.66634Z" fill="#FFFFFF"/>
</svg>
