<svg width="16" height="16" viewBox="0 0 16 16" fill="none" xmlns="http://www.w3.org/2000/svg">
<mask id="mask0_742_1539" style="mask-type:alpha" maskUnits="userSpaceOnUse" x="0" y="0" width="16" height="16">
<rect width="16" height="16" fill="#D9D9D9"/>
</mask>
<g mask="url(#mask0_742_1539)">
<path d="M9.99967 10.668C10.1886 10.668 10.347 10.604 10.475 10.476C10.6026 10.3484 10.6663 10.1902 10.6663 10.0013V9.33463H11.333C11.5219 9.33463 11.6801 9.27064 11.8077 9.14263C11.9357 9.01508 11.9997 8.85686 11.9997 8.66797C11.9997 8.47908 11.9357 8.32063 11.8077 8.19264C11.6801 8.06508 11.5219 8.0013 11.333 8.0013H10.6663V7.33464C10.6663 7.14575 10.6026 6.9873 10.475 6.8593C10.347 6.73175 10.1886 6.66797 9.99967 6.66797C9.81079 6.66797 9.65256 6.73175 9.52501 6.8593C9.39701 6.9873 9.33301 7.14575 9.33301 7.33464V8.0013H8.66634C8.47745 8.0013 8.31923 8.06508 8.19167 8.19264C8.06367 8.32063 7.99967 8.47908 7.99967 8.66797C7.99967 8.85686 8.06367 9.01508 8.19167 9.14263C8.31923 9.27064 8.47745 9.33463 8.66634 9.33463H9.33301V10.0013C9.33301 10.1902 9.39701 10.3484 9.52501 10.476C9.65256 10.604 9.81079 10.668 9.99967 10.668ZM2.66634 13.3346C2.29967 13.3346 1.9859 13.2042 1.72501 12.9433C1.46367 12.682 1.33301 12.368 1.33301 12.0013V4.0013C1.33301 3.63464 1.46367 3.32086 1.72501 3.05997C1.9859 2.79864 2.29967 2.66797 2.66634 2.66797H6.11634C6.29412 2.66797 6.46367 2.7013 6.62501 2.76797C6.7859 2.83464 6.92745 2.92908 7.04967 3.0513L7.99967 4.0013H13.333C13.6997 4.0013 14.0137 4.13197 14.275 4.3933C14.5359 4.65419 14.6663 4.96797 14.6663 5.33464V12.0013C14.6663 12.368 14.5359 12.682 14.275 12.9433C14.0137 13.2042 13.6997 13.3346 13.333 13.3346H2.66634Z" fill="#FFFFFF"/>
</g>
</svg>
