<svg width="12" height="12" viewBox="0 0 12 12" fill="none" xmlns="http://www.w3.org/2000/svg">
<path d="M1.33333 12C0.966667 12 0.652667 11.8696 0.391333 11.6087C0.130444 11.3473 0 11.0333 0 10.6667V1.33333C0 0.966667 0.130444 0.652667 0.391333 0.391333C0.652667 0.130444 0.966667 0 1.33333 0H4C4.36667 0 4.68067 0.130444 4.942 0.391333C5.20289 0.652667 5.33333 0.966667 5.33333 1.33333V10.6667C5.33333 11.0333 5.20289 11.3473 4.942 11.6087C4.68067 11.8696 4.36667 12 4 12H1.33333ZM8 4.66667C7.63333 4.66667 7.31956 4.536 7.05867 4.27467C6.79733 4.01378 6.66667 3.7 6.66667 3.33333V1.33333C6.66667 0.966667 6.79733 0.652667 7.05867 0.391333C7.31956 0.130444 7.63333 0 8 0H10.6667C11.0333 0 11.3473 0.130444 11.6087 0.391333C11.8696 0.652667 12 0.966667 12 1.33333V3.33333C12 3.7 11.8696 4.01378 11.6087 4.27467C11.3473 4.536 11.0333 4.66667 10.6667 4.66667H8ZM8 12C7.63333 12 7.31956 11.8696 7.05867 11.6087C6.79733 11.3473 6.66667 11.0333 6.66667 10.6667V7.33333C6.66667 6.96667 6.79733 6.65267 7.05867 6.39133C7.31956 6.13044 7.63333 6 8 6H10.6667C11.0333 6 11.3473 6.13044 11.6087 6.39133C11.8696 6.65267 12 6.96667 12 7.33333V10.6667C12 11.0333 11.8696 11.3473 11.6087 11.6087C11.3473 11.8696 11.0333 12 10.6667 12H8Z" fill="#FFFFFF"/>
</svg>
