<svg width="16" height="16" viewBox="0 0 16 16" fill="none" xmlns="http://www.w3.org/2000/svg">
<mask id="mask0_742_1521" style="mask-type:alpha" maskUnits="userSpaceOnUse" x="0" y="0" width="16" height="16">
<rect width="16" height="16" fill="#D9D9D9"/>
</mask>
<g mask="url(#mask0_742_1521)">
<path d="M12.6667 14.668H3.33333C2.96667 14.668 2.65267 14.5375 2.39133 14.2766C2.13044 14.0153 2 13.7013 2 13.3346V5.33464C2 4.96797 2.13044 4.65419 2.39133 4.3933C2.65267 4.13197 2.96667 4.0013 3.33333 4.0013H4.66667C4.66667 3.07908 4.99178 2.29286 5.642 1.64264C6.29178 0.992858 7.07778 0.667969 8 0.667969C8.92222 0.667969 9.70844 0.992858 10.3587 1.64264C11.0084 2.29286 11.3333 3.07908 11.3333 4.0013H12.6667C13.0333 4.0013 13.3473 4.13197 13.6087 4.3933C13.8696 4.65419 14 4.96797 14 5.33464V13.3346C14 13.7013 13.8696 14.0153 13.6087 14.2766C13.3473 14.5375 13.0333 14.668 12.6667 14.668ZM6 4.0013H10C10 3.44575 9.80556 2.97352 9.41667 2.58464C9.02778 2.19575 8.55556 2.0013 8 2.0013C7.44444 2.0013 6.97222 2.19575 6.58333 2.58464C6.19444 2.97352 6 3.44575 6 4.0013ZM8 9.33464C8.82222 9.33464 9.56667 9.06241 10.2333 8.51797C10.9 7.97352 11.2278 7.36241 11.2167 6.68464C11.2167 6.49575 11.1556 6.33464 11.0333 6.2013C10.9111 6.06797 10.7556 6.0013 10.5667 6.0013C10.4111 6.0013 10.2722 6.0513 10.15 6.1513C10.0278 6.2513 9.93889 6.4013 9.88333 6.6013C9.76111 7.02352 9.52222 7.36241 9.16667 7.61797C8.81111 7.87352 8.42222 8.0013 8 8.0013C7.57778 8.0013 7.18622 7.87352 6.82533 7.61797C6.464 7.36241 6.22778 7.02352 6.11667 6.6013C6.06111 6.39019 5.97778 6.2373 5.86667 6.14264C5.75556 6.04841 5.62222 6.0013 5.46667 6.0013C5.27778 6.0013 5.11956 6.06797 4.992 6.2013C4.864 6.33464 4.8 6.49575 4.8 6.68464C4.8 7.36241 5.12778 7.97352 5.78333 8.51797C6.43889 9.06241 7.17778 9.33464 8 9.33464Z" fill="#FFFFFF"/>
</g>
</svg>
