<svg width="159" height="40" viewBox="0 0 159 40" fill="none" xmlns="http://www.w3.org/2000/svg">
<rect x="0.5" y="0.5" width="39" height="39" rx="7.5" stroke="#99A8C5"/>
<g clip-path="url(#clip0_742_1550)">
<path opacity="0.16" d="M14.1001 18.8585C14.6574 16.7806 16.7936 14.6457 18.8702 14.0884L31.8214 10.6178C33.898 10.0617 35.1306 11.2943 34.5745 13.3709L31.1027 26.3221C30.5454 28.4 28.4092 30.5349 26.3326 31.0922L13.3826 34.5628C11.306 35.1189 10.0735 33.8863 10.6295 31.8097L14.1001 18.8585Z" fill="#6366F1"/>
<path d="M8.90601 13.6671C9.46209 11.5892 11.597 9.45427 13.6749 8.89695L26.6261 5.42642C28.7027 4.87034 29.9365 6.1029 29.3792 8.17951L25.9086 21.1307C25.3513 23.2086 23.2164 25.3435 21.1385 25.9008L8.18732 29.3714C6.11071 29.9275 4.87815 28.6949 5.43423 26.6183L8.90601 13.6671Z" fill="#6366F1"/>
</g>
<path d="M54.2024 27V14.5585H56.3734L61.0327 20.8878H59.9973L64.5564 14.5585H66.7274V27H64.4395V17.147L65.3246 17.3641L60.5985 23.66H60.3313L55.7221 17.3641L56.4736 17.147V27H54.2024ZM73.2334 27.2004C72.2982 27.2004 71.4799 26.9889 70.7785 26.5658C70.0771 26.1427 69.5315 25.5694 69.1419 24.8457C68.7522 24.122 68.5574 23.3204 68.5574 22.4409C68.5574 21.528 68.7522 20.7208 69.1419 20.0194C69.5427 19.3069 70.0826 18.7446 70.7618 18.3327C71.452 17.9208 72.2202 17.7148 73.0664 17.7148C73.7789 17.7148 74.4024 17.8317 74.9368 18.0655C75.4823 18.2993 75.9443 18.6222 76.3229 19.0341C76.7014 19.446 76.9909 19.9192 77.1913 20.4536C77.3917 20.9769 77.4919 21.5447 77.4919 22.157C77.4919 22.3129 77.4807 22.4743 77.4585 22.6413C77.4473 22.8083 77.4195 22.953 77.375 23.0755H70.361V21.4055H76.1392L75.1038 22.1904C75.204 21.6783 75.1761 21.2218 75.0203 20.821C74.8755 20.4202 74.6306 20.1029 74.2855 19.8691C73.9515 19.6353 73.5451 19.5184 73.0664 19.5184C72.6099 19.5184 72.2035 19.6353 71.8473 19.8691C71.491 20.0918 71.2182 20.4258 71.029 20.8711C70.8508 21.3053 70.784 21.8341 70.8286 22.4576C70.784 23.0143 70.8564 23.5097 71.0457 23.9439C71.2461 24.367 71.5355 24.6954 71.9141 24.9292C72.3037 25.163 72.7491 25.2799 73.2501 25.2799C73.7511 25.2799 74.1741 25.1741 74.5193 24.9626C74.8755 24.7511 75.1539 24.4672 75.3543 24.1109L77.1245 24.9793C76.9463 25.4135 76.668 25.7976 76.2895 26.1316C75.9109 26.4656 75.46 26.7272 74.9368 26.9165C74.4246 27.1058 73.8568 27.2004 73.2334 27.2004ZM83.5256 27.2004C82.6238 27.2004 81.8111 26.9944 81.0874 26.5825C80.3749 26.1594 79.8127 25.5916 79.4007 24.8791C78.9888 24.1554 78.7828 23.3427 78.7828 22.4409C78.7828 21.5391 78.9888 20.7319 79.4007 20.0194C79.8127 19.3069 80.3749 18.7446 81.0874 18.3327C81.8111 17.9208 82.6238 17.7148 83.5256 17.7148C84.1714 17.7148 84.7726 17.8317 85.3292 18.0655C85.8859 18.2882 86.3646 18.5999 86.7654 19.0007C87.1774 19.3904 87.4724 19.858 87.6505 20.4035L85.73 21.2385C85.563 20.782 85.2791 20.4146 84.8783 20.1363C84.4887 19.858 84.0378 19.7188 83.5256 19.7188C83.0469 19.7188 82.6183 19.8357 82.2397 20.0695C81.8723 20.3033 81.5829 20.6262 81.3713 21.0381C81.1598 21.45 81.054 21.9232 81.054 22.4576C81.054 22.992 81.1598 23.4652 81.3713 23.8771C81.5829 24.289 81.8723 24.6119 82.2397 24.8457C82.6183 25.0795 83.0469 25.1964 83.5256 25.1964C84.0489 25.1964 84.5054 25.0572 84.895 24.7789C85.2847 24.5006 85.563 24.1276 85.73 23.66L87.6505 24.5284C87.4724 25.0405 87.1829 25.5026 86.7821 25.9145C86.3813 26.3153 85.9026 26.6326 85.3459 26.8664C84.7893 27.0891 84.1825 27.2004 83.5256 27.2004ZM89.3105 27V14.3581H91.4982V19.7021L91.1976 19.3848C91.4091 18.8393 91.7543 18.4273 92.233 18.149C92.7229 17.8595 93.2907 17.7148 93.9364 17.7148C94.6044 17.7148 95.1945 17.8595 95.7066 18.149C96.2299 18.4385 96.6362 18.8448 96.9257 19.3681C97.2152 19.8802 97.3599 20.4759 97.3599 21.155V27H95.1722V21.6727C95.1722 21.2719 95.0943 20.9268 94.9384 20.6373C94.7825 20.3478 94.5654 20.1252 94.2871 19.9693C94.0199 19.8023 93.7026 19.7188 93.3352 19.7188C92.9789 19.7188 92.6616 19.8023 92.3833 19.9693C92.105 20.1252 91.8879 20.3478 91.732 20.6373C91.5761 20.9268 91.4982 21.2719 91.4982 21.6727V27H89.3105ZM98.3748 27L102.667 14.5585H105.606L109.898 27H107.426L106.541 24.328H101.732L100.83 27H98.3748ZM102.383 22.324H105.89L103.819 16.1283H104.454L102.383 22.324ZM114.998 27.2004C114.118 27.2004 113.333 26.9944 112.643 26.5825C111.953 26.1594 111.407 25.5861 111.006 24.8624C110.606 24.1387 110.405 23.3371 110.405 22.4576C110.405 21.5669 110.606 20.7653 111.006 20.0528C111.407 19.3403 111.953 18.7725 112.643 18.3494C113.344 17.9263 114.124 17.7148 114.981 17.7148C115.671 17.7148 116.284 17.854 116.818 18.1323C117.364 18.3995 117.792 18.778 118.104 19.2679L117.77 19.7188V14.3581H119.958V27H117.887V25.2465L118.121 25.6807C117.809 26.1706 117.375 26.5491 116.818 26.8163C116.261 27.0724 115.655 27.2004 114.998 27.2004ZM115.232 25.1964C115.733 25.1964 116.172 25.0795 116.551 24.8457C116.929 24.6119 117.224 24.289 117.436 23.8771C117.659 23.4652 117.77 22.992 117.77 22.4576C117.77 21.9343 117.659 21.4667 117.436 21.0548C117.224 20.6317 116.929 20.3033 116.551 20.0695C116.172 19.8357 115.733 19.7188 115.232 19.7188C114.742 19.7188 114.302 19.8413 113.912 20.0862C113.523 20.32 113.216 20.6429 112.994 21.0548C112.782 21.4556 112.676 21.9232 112.676 22.4576C112.676 22.992 112.782 23.4652 112.994 23.8771C113.216 24.289 113.523 24.6119 113.912 24.8457C114.302 25.0795 114.742 25.1964 115.232 25.1964ZM121.993 27V17.9152H124.047V20.0194L123.813 19.6687C123.98 19.0118 124.314 18.522 124.815 18.1991C125.316 17.8762 125.906 17.7148 126.585 17.7148C127.331 17.7148 127.988 17.9096 128.556 18.2993C129.124 18.689 129.491 19.2011 129.658 19.8357L129.04 19.8858C129.319 19.1621 129.736 18.6222 130.293 18.2659C130.849 17.8985 131.49 17.7148 132.213 17.7148C132.859 17.7148 133.432 17.8595 133.933 18.149C134.446 18.4385 134.846 18.8448 135.136 19.3681C135.425 19.8802 135.57 20.4759 135.57 21.155V27H133.382V21.6727C133.382 21.2719 133.31 20.9268 133.165 20.6373C133.02 20.3478 132.82 20.1252 132.564 19.9693C132.308 19.8023 131.996 19.7188 131.629 19.7188C131.284 19.7188 130.978 19.8023 130.71 19.9693C130.443 20.1252 130.237 20.3478 130.092 20.6373C129.948 20.9268 129.875 21.2719 129.875 21.6727V27H127.688V21.6727C127.688 21.2719 127.615 20.9268 127.471 20.6373C127.326 20.3478 127.12 20.1252 126.853 19.9693C126.597 19.8023 126.29 19.7188 125.934 19.7188C125.589 19.7188 125.283 19.8023 125.016 19.9693C124.748 20.1252 124.542 20.3478 124.398 20.6373C124.253 20.9268 124.181 21.2719 124.181 21.6727V27H121.993ZM137.421 27V17.9152H139.609V27H137.421ZM137.421 16.8965V14.5585H139.609V16.8965H137.421ZM141.628 27V17.9152H143.683V19.7021L143.516 19.3848C143.727 18.8393 144.072 18.4273 144.551 18.149C145.041 17.8595 145.609 17.7148 146.254 17.7148C146.922 17.7148 147.512 17.8595 148.025 18.149C148.548 18.4385 148.954 18.8448 149.244 19.3681C149.533 19.8802 149.678 20.4759 149.678 21.155V27H147.49V21.6727C147.49 21.2719 147.412 20.9268 147.256 20.6373C147.101 20.3478 146.883 20.1252 146.605 19.9693C146.338 19.8023 146.021 19.7188 145.653 19.7188C145.297 19.7188 144.98 19.8023 144.701 19.9693C144.423 20.1252 144.206 20.3478 144.05 20.6373C143.894 20.9268 143.816 21.2719 143.816 21.6727V27H141.628Z" fill="#FFFFFF"/>
<defs>
<clipPath id="clip0_742_1550">
<rect width="29.79" height="29.79" fill="white" transform="translate(5.10938 5.10156)"/>
</clipPath>
</defs>
</svg>
