<svg width="16" height="16" viewBox="0 0 16 16" fill="none" xmlns="http://www.w3.org/2000/svg">
<mask id="mask0_742_1546" style="mask-type:alpha" maskUnits="userSpaceOnUse" x="0" y="0" width="16" height="16">
<rect width="16" height="16" fill="#D9D9D9"/>
</mask>
<g mask="url(#mask0_742_1546)">
<path d="M4.00033 14.668C3.63366 14.668 3.31988 14.5375 3.05899 14.2766C2.79766 14.0153 2.66699 13.7013 2.66699 13.3346V6.66797C2.66699 6.3013 2.79766 5.9873 3.05899 5.72597C3.31988 5.46508 3.63366 5.33464 4.00033 5.33464H4.66699V4.0013C4.66699 3.07908 4.9921 2.29286 5.64233 1.64264C6.2921 0.992858 7.0781 0.667969 8.00033 0.667969C8.92255 0.667969 9.70877 0.992858 10.359 1.64264C11.0088 2.29286 11.3337 3.07908 11.3337 4.0013V5.33464H12.0003C12.367 5.33464 12.681 5.46508 12.9423 5.72597C13.2032 5.9873 13.3337 6.3013 13.3337 6.66797V13.3346C13.3337 13.7013 13.2032 14.0153 12.9423 14.2766C12.681 14.5375 12.367 14.668 12.0003 14.668H4.00033ZM8.00033 11.3346C8.36699 11.3346 8.68099 11.2042 8.94233 10.9433C9.20321 10.682 9.33366 10.368 9.33366 10.0013C9.33366 9.63464 9.20321 9.32064 8.94233 9.0593C8.68099 8.79841 8.36699 8.66797 8.00033 8.66797C7.63366 8.66797 7.31988 8.79841 7.05899 9.0593C6.79766 9.32064 6.66699 9.63464 6.66699 10.0013C6.66699 10.368 6.79766 10.682 7.05899 10.9433C7.31988 11.2042 7.63366 11.3346 8.00033 11.3346ZM6.00033 5.33464H10.0003V4.0013C10.0003 3.44575 9.80588 2.97352 9.41699 2.58464C9.0281 2.19575 8.55588 2.0013 8.00033 2.0013C7.44477 2.0013 6.97255 2.19575 6.58366 2.58464C6.19477 2.97352 6.00033 3.44575 6.00033 4.0013V5.33464Z" fill="#FFFFFF"/>
</g>
</svg>
