<svg width="16" height="16" viewBox="0 0 16 16" fill="none" xmlns="http://www.w3.org/2000/svg">
<mask id="mask0_826_6776" style="mask-type:alpha" maskUnits="userSpaceOnUse" x="0" y="0" width="16" height="16">
<rect width="16" height="16" fill="#D9D9D9"/>
</mask>
<g mask="url(#mask0_826_6776)">
<path d="M3.33333 14C2.96667 14 2.65267 13.8696 2.39133 13.6087C2.13044 13.3473 2 13.0333 2 12.6667V3.33333C2 2.96667 2.13044 2.65267 2.39133 2.39133C2.65267 2.13044 2.96667 2 3.33333 2H6C6.36667 2 6.68067 2.13044 6.942 2.39133C7.20289 2.65267 7.33333 2.96667 7.33333 3.33333V12.6667C7.33333 13.0333 7.20289 13.3473 6.942 13.6087C6.68067 13.8696 6.36667 14 6 14H3.33333ZM10 6.66667C9.63333 6.66667 9.31956 6.536 9.05867 6.27467C8.79733 6.01378 8.66667 5.7 8.66667 5.33333V3.33333C8.66667 2.96667 8.79733 2.65267 9.05867 2.39133C9.31956 2.13044 9.63333 2 10 2H12.6667C13.0333 2 13.3473 2.13044 13.6087 2.39133C13.8696 2.65267 14 2.96667 14 3.33333V5.33333C14 5.7 13.8696 6.01378 13.6087 6.27467C13.3473 6.536 13.0333 6.66667 12.6667 6.66667H10ZM10 14C9.63333 14 9.31956 13.8696 9.05867 13.6087C8.79733 13.3473 8.66667 13.0333 8.66667 12.6667V9.33333C8.66667 8.96667 8.79733 8.65267 9.05867 8.39133C9.31956 8.13044 9.63333 8 10 8H12.6667C13.0333 8 13.3473 8.13044 13.6087 8.39133C13.8696 8.65267 14 8.96667 14 9.33333V12.6667C14 13.0333 13.8696 13.3473 13.6087 13.6087C13.3473 13.8696 13.0333 14 12.6667 14H10Z" fill="#586A84"/>
</g>
</svg>
