<svg width="14" height="16" viewBox="0 0 14 16" fill="none" xmlns="http://www.w3.org/2000/svg">
<path d="M2.83301 15.5C2.37467 15.5 1.98245 15.3369 1.65634 15.0108C1.32967 14.6842 1.16634 14.2917 1.16634 13.8333V3C0.93023 3 0.732175 2.92028 0.572175 2.76083C0.41273 2.60083 0.333008 2.40278 0.333008 2.16667C0.333008 1.93056 0.41273 1.7325 0.572175 1.5725C0.732175 1.41306 0.93023 1.33333 1.16634 1.33333H4.49967C4.49967 1.09722 4.57967 0.899167 4.73967 0.739167C4.89912 0.579722 5.0969 0.5 5.33301 0.5H8.66634C8.90245 0.5 9.10051 0.579722 9.26051 0.739167C9.41995 0.899167 9.49967 1.09722 9.49967 1.33333H12.833C13.0691 1.33333 13.2669 1.41306 13.4263 1.5725C13.5863 1.7325 13.6663 1.93056 13.6663 2.16667C13.6663 2.40278 13.5863 2.60083 13.4263 2.76083C13.2669 2.92028 13.0691 3 12.833 3V13.8333C12.833 14.2917 12.67 14.6842 12.3438 15.0108C12.0172 15.3369 11.6247 15.5 11.1663 15.5H2.83301ZM4.49967 11.3333C4.49967 11.5694 4.57967 11.7672 4.73967 11.9267C4.89912 12.0867 5.0969 12.1667 5.33301 12.1667C5.56912 12.1667 5.76717 12.0867 5.92717 11.9267C6.08662 11.7672 6.16634 11.5694 6.16634 11.3333V5.5C6.16634 5.26389 6.08662 5.06583 5.92717 4.90583C5.76717 4.74639 5.56912 4.66667 5.33301 4.66667C5.0969 4.66667 4.89912 4.74639 4.73967 4.90583C4.57967 5.06583 4.49967 5.26389 4.49967 5.5V11.3333ZM7.83301 11.3333C7.83301 11.5694 7.91301 11.7672 8.07301 11.9267C8.23245 12.0867 8.43023 12.1667 8.66634 12.1667C8.90245 12.1667 9.10051 12.0867 9.26051 11.9267C9.41995 11.7672 9.49967 11.5694 9.49967 11.3333V5.5C9.49967 5.26389 9.41995 5.06583 9.26051 4.90583C9.10051 4.74639 8.90245 4.66667 8.66634 4.66667C8.43023 4.66667 8.23245 4.74639 8.07301 4.90583C7.91301 5.06583 7.83301 5.26389 7.83301 5.5V11.3333Z" fill="#EEF0F4"/>
</svg>
