<svg width="20" height="20" viewBox="0 0 20 20" fill="none" xmlns="http://www.w3.org/2000/svg">
<mask id="mask0_844_11222" style="mask-type:alpha" maskUnits="userSpaceOnUse" x="0" y="0" width="20" height="20">
<rect width="20" height="20" fill="#D9D9D9"/>
</mask>
<g mask="url(#mask0_844_11222)">
<path d="M16.0833 7.43685L12.5417 3.93685L13.7083 2.77018C14.0278 2.45074 14.4203 2.29102 14.8858 2.29102C15.3508 2.29102 15.7431 2.45074 16.0625 2.77018L17.2292 3.93685C17.5486 4.25629 17.7153 4.64185 17.7292 5.09352C17.7431 5.54463 17.5903 5.9299 17.2708 6.24935L16.0833 7.43685ZM3.33333 17.4993C3.09722 17.4993 2.89944 17.4193 2.74 17.2593C2.58 17.0999 2.5 16.9021 2.5 16.666V14.3118C2.5 14.2007 2.52083 14.0932 2.5625 13.9893C2.60417 13.8849 2.66667 13.791 2.75 13.7077L11.3333 5.12435L14.875 8.66602L6.29167 17.2493C6.20833 17.3327 6.11472 17.3952 6.01083 17.4368C5.90639 17.4785 5.79861 17.4993 5.6875 17.4993H3.33333Z" fill="#EEF0F4"/>
</g>
</svg>
