<svg width="16" height="16" viewBox="0 0 16 16" fill="none" xmlns="http://www.w3.org/2000/svg">
<mask id="mask0_826_6783" style="mask-type:alpha" maskUnits="userSpaceOnUse" x="0" y="0" width="16" height="16">
<rect width="16" height="16" fill="#D9D9D9"/>
</mask>
<g mask="url(#mask0_826_6783)">
<path d="M12.6667 14.6667H3.33333C2.96667 14.6667 2.65267 14.5362 2.39133 14.2753C2.13044 14.014 2 13.7 2 13.3333V5.33332C2 4.96666 2.13044 4.65288 2.39133 4.39199C2.65267 4.13066 2.96667 3.99999 3.33333 3.99999H4.66667C4.66667 3.07777 4.99178 2.29155 5.642 1.64132C6.29178 0.991545 7.07778 0.666656 8 0.666656C8.92222 0.666656 9.70844 0.991545 10.3587 1.64132C11.0084 2.29155 11.3333 3.07777 11.3333 3.99999H12.6667C13.0333 3.99999 13.3473 4.13066 13.6087 4.39199C13.8696 4.65288 14 4.96666 14 5.33332V13.3333C14 13.7 13.8696 14.014 13.6087 14.2753C13.3473 14.5362 13.0333 14.6667 12.6667 14.6667ZM6 3.99999H10C10 3.44443 9.80556 2.97221 9.41667 2.58332C9.02778 2.19443 8.55556 1.99999 8 1.99999C7.44444 1.99999 6.97222 2.19443 6.58333 2.58332C6.19444 2.97221 6 3.44443 6 3.99999ZM8 9.33332C8.82222 9.33332 9.56667 9.0611 10.2333 8.51666C10.9 7.97221 11.2278 7.3611 11.2167 6.68332C11.2167 6.49443 11.1556 6.33332 11.0333 6.19999C10.9111 6.06666 10.7556 5.99999 10.5667 5.99999C10.4111 5.99999 10.2722 6.04999 10.15 6.14999C10.0278 6.24999 9.93889 6.39999 9.88333 6.59999C9.76111 7.02221 9.52222 7.3611 9.16667 7.61666C8.81111 7.87221 8.42222 7.99999 8 7.99999C7.57778 7.99999 7.18622 7.87221 6.82533 7.61666C6.464 7.3611 6.22778 7.02221 6.11667 6.59999C6.06111 6.38888 5.97778 6.23599 5.86667 6.14132C5.75556 6.0471 5.62222 5.99999 5.46667 5.99999C5.27778 5.99999 5.11956 6.06666 4.992 6.19999C4.864 6.33332 4.8 6.49443 4.8 6.68332C4.8 7.3611 5.12778 7.97221 5.78333 8.51666C6.43889 9.0611 7.17778 9.33332 8 9.33332Z" fill="white"/>
</g>
</svg>
