<svg width="12" height="12" viewBox="0 0 12 12" fill="none" xmlns="http://www.w3.org/2000/svg">
<path d="M6 8.66671C5.81111 8.66671 5.65289 8.60271 5.52533 8.47471C5.39734 8.34715 5.33333 8.18893 5.33333 8.00004V3.23338L4.08333 4.48338C3.95 4.61671 3.79445 4.68338 3.61667 4.68338C3.43889 4.68338 3.27778 4.61115 3.13333 4.46671C3 4.33338 2.93622 4.17493 2.942 3.99138C2.94733 3.80827 3.01111 3.6556 3.13333 3.53338L5.53333 1.13338C5.6 1.06671 5.67222 1.01938 5.75 0.991376C5.82778 0.96382 5.91111 0.950043 6 0.950043C6.08889 0.950043 6.17222 0.96382 6.25 0.991376C6.32778 1.01938 6.4 1.06671 6.46667 1.13338L8.86667 3.53338C9 3.66671 9.06378 3.82493 9.058 4.00804C9.05267 4.1916 8.98889 4.34449 8.86667 4.46671C8.73333 4.60004 8.57511 4.66938 8.392 4.67471C8.20845 4.68049 8.05 4.61671 7.91667 4.48338L6.66667 3.23338V8.00004C6.66667 8.18893 6.60289 8.34715 6.47534 8.47471C6.34733 8.60271 6.18889 8.66671 6 8.66671ZM2 11.3334C1.63333 11.3334 1.31956 11.2029 1.05867 10.942C0.797334 10.6807 0.666668 10.3667 0.666668 10V8.66671C0.666668 8.47782 0.730446 8.31938 0.858001 8.19138C0.986001 8.06382 1.14445 8.00004 1.33333 8.00004C1.52222 8.00004 1.68067 8.06382 1.80867 8.19138C1.93622 8.31938 2 8.47782 2 8.66671V10H10V8.66671C10 8.47782 10.064 8.31938 10.192 8.19138C10.3196 8.06382 10.4778 8.00004 10.6667 8.00004C10.8556 8.00004 11.0138 8.06382 11.1413 8.19138C11.2693 8.31938 11.3333 8.47782 11.3333 8.66671V10C11.3333 10.3667 11.2029 10.6807 10.942 10.942C10.6807 11.2029 10.3667 11.3334 10 11.3334H2Z" fill="#BAC4D1"/>
</svg>
