<svg width="15" height="12" viewBox="0 0 15 12" fill="none" xmlns="http://www.w3.org/2000/svg">
<path d="M6 9H6.75C6.75 9.2125 6.822 9.3905 6.966 9.534C7.1095 9.678 7.2875 9.75 7.5 9.75C7.7125 9.75 7.89075 9.678 8.03475 9.534C8.17825 9.3905 8.25 9.2125 8.25 9H9C9.2125 9 9.39075 8.928 9.53475 8.784C9.67825 8.6405 9.75 8.4625 9.75 8.25V6C9.75 5.7875 9.67825 5.60925 9.53475 5.46525C9.39075 5.32175 9.2125 5.25 9 5.25H6.75V4.5H9C9.2125 4.5 9.39075 4.428 9.53475 4.284C9.67825 4.1405 9.75 3.9625 9.75 3.75C9.75 3.5375 9.67825 3.35925 9.53475 3.21525C9.39075 3.07175 9.2125 3 9 3H8.25C8.25 2.7875 8.17825 2.60925 8.03475 2.46525C7.89075 2.32175 7.7125 2.25 7.5 2.25C7.2875 2.25 7.1095 2.32175 6.966 2.46525C6.822 2.60925 6.75 2.7875 6.75 3H6C5.7875 3 5.6095 3.07175 5.466 3.21525C5.322 3.35925 5.25 3.5375 5.25 3.75V6C5.25 6.2125 5.322 6.3905 5.466 6.534C5.6095 6.678 5.7875 6.75 6 6.75H8.25V7.5H6C5.7875 7.5 5.6095 7.57175 5.466 7.71525C5.322 7.85925 5.25 8.0375 5.25 8.25C5.25 8.4625 5.322 8.6405 5.466 8.784C5.6095 8.928 5.7875 9 6 9ZM1.5 12C1.0875 12 0.7345 11.8533 0.441 11.5597C0.147 11.2657 0 10.9125 0 10.5V1.5C0 1.0875 0.147 0.7345 0.441 0.441C0.7345 0.147 1.0875 0 1.5 0H13.5C13.9125 0 14.2658 0.147 14.5598 0.441C14.8533 0.7345 15 1.0875 15 1.5V10.5C15 10.9125 14.8533 11.2657 14.5598 11.5597C14.2658 11.8533 13.9125 12 13.5 12H1.5Z" fill="#586A84"/>
</svg>
