<svg width="24" height="24" viewBox="0 0 24 24" fill="none" xmlns="http://www.w3.org/2000/svg">
<mask id="mask0_826_6280" style="mask-type:alpha" maskUnits="userSpaceOnUse" x="2" y="2" width="20" height="20">
<rect x="2" y="2" width="20" height="20" fill="#D9D9D9"/>
</mask>
<g mask="url(#mask0_826_6280)">
<path d="M12 18.6667C11.5417 18.6667 11.1495 18.5036 10.8234 18.1775C10.4967 17.8508 10.3334 17.4583 10.3334 17C10.3334 16.5417 10.4967 16.1492 10.8234 15.8225C11.1495 15.4964 11.5417 15.3333 12 15.3333C12.4584 15.3333 12.8509 15.4964 13.1775 15.8225C13.5037 16.1492 13.6667 16.5417 13.6667 17C13.6667 17.4583 13.5037 17.8508 13.1775 18.1775C12.8509 18.5036 12.4584 18.6667 12 18.6667ZM12 13.6667C11.5417 13.6667 11.1495 13.5033 10.8234 13.1767C10.4967 12.8506 10.3334 12.4583 10.3334 12C10.3334 11.5417 10.4967 11.1492 10.8234 10.8225C11.1495 10.4964 11.5417 10.3333 12 10.3333C12.4584 10.3333 12.8509 10.4964 13.1775 10.8225C13.5037 11.1492 13.6667 11.5417 13.6667 12C13.6667 12.4583 13.5037 12.8506 13.1775 13.1767C12.8509 13.5033 12.4584 13.6667 12 13.6667ZM12 8.66667C11.5417 8.66667 11.1495 8.50334 10.8234 8.17667C10.4967 7.85056 10.3334 7.45834 10.3334 7C10.3334 6.54167 10.4967 6.14945 10.8234 5.82334C11.1495 5.49667 11.5417 5.33334 12 5.33334C12.4584 5.33334 12.8509 5.49667 13.1775 5.82334C13.5037 6.14945 13.6667 6.54167 13.6667 7C13.6667 7.45834 13.5037 7.85056 13.1775 8.17667C12.8509 8.50334 12.4584 8.66667 12 8.66667Z" fill="#DDE1E8"/>
</g>
</svg>
