<svg width="70" height="48" viewBox="0 0 70 48" fill="none" xmlns="http://www.w3.org/2000/svg">
<rect width="70" height="48" rx="4" fill="#F3FBFF"/>
<path fill-rule="evenodd" clip-rule="evenodd" d="M18.2471 18.1289H14.8182C14.5836 18.1289 14.384 18.2994 14.3475 18.531L12.9606 27.3237C12.9331 27.4973 13.0674 27.6537 13.2434 27.6537H14.8804C15.1151 27.6537 15.3146 27.4831 15.3512 27.2511L15.7252 24.8796C15.7613 24.6473 15.9614 24.477 16.1955 24.477H17.281C19.5397 24.477 20.8432 23.384 21.1839 21.2181C21.3372 20.2705 21.1903 19.5259 20.7465 19.0043C20.2592 18.4319 19.3947 18.1289 18.2471 18.1289ZM18.6427 21.3403C18.4553 22.5707 17.5152 22.5707 16.6062 22.5707H16.0887L16.4517 20.2728C16.4733 20.134 16.5936 20.0317 16.734 20.0317H16.9712C17.5904 20.0317 18.1745 20.0317 18.4764 20.3846C18.6562 20.5953 18.7114 20.9081 18.6427 21.3403ZM28.497 21.3009H26.8549C26.715 21.3009 26.5941 21.4032 26.5726 21.5422L26.4999 22.0014L26.3851 21.835C26.0296 21.319 25.2371 21.1466 24.4459 21.1466C22.6312 21.1466 21.0815 22.5209 20.7797 24.4487C20.6228 25.4102 20.8458 26.3297 21.3913 26.971C21.8918 27.5606 22.6078 27.8063 23.4595 27.8063C24.9215 27.8063 25.7324 26.8662 25.7324 26.8662L25.6591 27.3226C25.6315 27.497 25.7658 27.6534 25.9408 27.6534H27.4199C27.6552 27.6534 27.8536 27.4829 27.8907 27.2509L28.7782 21.6308C28.8063 21.458 28.6724 21.3009 28.497 21.3009ZM26.2081 24.4968C26.0496 25.4348 25.305 26.0645 24.3556 26.0645C23.8788 26.0645 23.4976 25.9116 23.253 25.6218C23.0103 25.3341 22.918 24.9244 22.9952 24.4682C23.1433 23.538 23.9004 22.8879 24.8354 22.8879C25.3016 22.8879 25.6807 23.0427 25.9303 23.335C26.1805 23.6304 26.2798 24.0425 26.2081 24.4968ZM35.592 21.3007H37.2421C37.4732 21.3007 37.608 21.5598 37.4767 21.7494L31.9887 29.6711C31.8998 29.7994 31.7534 29.8757 31.597 29.8757H29.949C29.7169 29.8757 29.5814 29.6145 29.7158 29.4245L31.4246 27.0123L29.6072 21.6786C29.5443 21.4932 29.6812 21.3007 29.8784 21.3007H31.4998C31.7105 21.3007 31.8963 21.4389 31.9571 21.6406L32.9216 24.862L35.1975 21.5097C35.2866 21.3788 35.4347 21.3007 35.592 21.3007Z" fill="#253B80"/>
<path fill-rule="evenodd" clip-rule="evenodd" d="M53.4835 27.3222L54.8907 18.3687C54.9123 18.2297 55.0327 18.1274 55.1726 18.127H56.7568C56.9318 18.127 57.0661 18.2838 57.0385 18.4574L55.6508 27.2496C55.6146 27.4816 55.415 27.6522 55.18 27.6522H53.7651C53.5902 27.6522 53.4559 27.4958 53.4835 27.3222ZM42.7063 18.1274H39.2767C39.0426 18.1274 38.8431 18.298 38.8064 18.5295L37.4196 27.3222C37.392 27.4958 37.5264 27.6522 37.7015 27.6522H39.4612C39.6248 27.6522 39.7647 27.5329 39.7902 27.3705L40.1837 24.8781C40.2199 24.6459 40.4199 24.4755 40.654 24.4755H41.739C43.9982 24.4755 45.3014 23.3825 45.6423 21.2166C45.7961 20.269 45.6483 19.5244 45.2047 19.0028C44.7177 18.4304 43.8538 18.1274 42.7063 18.1274ZM43.1019 21.3388C42.9148 22.5693 41.9747 22.5693 41.0652 22.5693H40.5482L40.9118 20.2713C40.9334 20.1326 41.0526 20.0302 41.1935 20.0302H41.4306C42.0494 20.0302 42.6341 20.0302 42.9357 20.3831C43.1158 20.5938 43.1705 20.9066 43.1019 21.3388ZM52.9551 21.2994H51.3143C51.1732 21.2994 51.0535 21.4017 51.0324 21.5407L50.9598 21.9999L50.8444 21.8335C50.489 21.3175 49.6969 21.1451 48.9057 21.1451C47.091 21.1451 45.5418 22.5194 45.2399 24.4472C45.0836 25.4087 45.3056 26.3282 45.8511 26.9696C46.3525 27.5591 47.0676 27.8048 47.9193 27.8048C49.3813 27.8048 50.192 26.8647 50.192 26.8647L50.1189 27.3211C50.0913 27.4956 50.2256 27.6519 50.4017 27.6519H51.8802C52.1143 27.6519 52.3138 27.4814 52.3505 27.2494L53.2384 21.6293C53.2656 21.4565 53.1313 21.2994 52.9551 21.2994ZM50.6665 24.4953C50.5089 25.4333 49.7634 26.063 48.8138 26.063C48.3379 26.063 47.956 25.9101 47.7112 25.6203C47.4685 25.3326 47.3773 24.9229 47.4537 24.4667C47.6024 23.5366 48.3586 22.8864 49.2936 22.8864C49.76 22.8864 50.1389 23.0412 50.3887 23.3335C50.6398 23.6289 50.7391 24.041 50.6665 24.4953Z" fill="#179BD7"/>
</svg>
