<svg width="70" height="48" viewBox="0 0 70 48" fill="none" xmlns="http://www.w3.org/2000/svg">
<rect width="70" height="48" rx="4" fill="#F7F7F7"/>
<path fill-rule="evenodd" clip-rule="evenodd" d="M16.6924 17.8659C17.6325 17.9452 18.5726 17.3901 19.1601 16.6863C19.7379 15.9627 20.1198 14.9913 20.0219 14C19.1895 14.0397 18.1613 14.5551 17.5737 15.2787C17.0352 15.9032 16.5749 16.9143 16.6924 17.8659ZM27.875 30.6334V15.1797H33.6036C36.561 15.1797 38.6272 17.2415 38.6272 20.2549C38.6272 23.2684 36.5218 25.35 33.5253 25.35H30.2448V30.6334H27.875ZM20.012 18.054C19.1838 18.0057 18.4281 18.3061 17.8177 18.5487C17.4249 18.7049 17.0923 18.8371 16.8392 18.8371C16.5552 18.8371 16.2089 18.6978 15.82 18.5414C15.3104 18.3365 14.7278 18.1022 14.1169 18.1135C12.7166 18.1333 11.4142 18.9362 10.6993 20.2149C9.23044 22.7724 10.3174 26.559 11.7373 28.6406C12.4326 29.6715 13.265 30.8016 14.3617 30.7619C14.8442 30.7435 15.1913 30.5944 15.5505 30.4401C15.9641 30.2625 16.3937 30.078 17.0645 30.078C17.712 30.078 18.1228 30.2577 18.5172 30.4302C18.8921 30.5942 19.2522 30.7518 19.7868 30.7421C20.9227 30.7223 21.6376 29.7112 22.3328 28.6803C23.0831 27.5738 23.4129 26.494 23.4629 26.3301L23.4688 26.3112C23.4676 26.31 23.4583 26.3057 23.4419 26.2981C23.1911 26.1818 21.274 25.2934 21.2557 22.9112C21.2372 20.9116 22.7762 19.8984 23.0185 19.739C23.0332 19.7293 23.0432 19.7227 23.0477 19.7193C22.0684 18.2522 20.5408 18.0936 20.012 18.054ZM42.9556 30.7522C44.444 30.7522 45.8248 29.989 46.4515 28.7796H46.5005V30.6333H48.694V22.9411C48.694 20.7108 46.9314 19.2734 44.2188 19.2734C41.7021 19.2734 39.8416 20.7306 39.773 22.7329H41.9078C42.0841 21.7813 42.9556 21.1568 44.1503 21.1568C45.5996 21.1568 46.4123 21.8408 46.4123 23.0997V23.9522L43.455 24.1306C40.7033 24.2991 39.2148 25.4391 39.2148 27.4216C39.2148 29.4239 40.7523 30.7522 42.9556 30.7522ZM43.5926 28.9188C42.3294 28.9188 41.5264 28.3042 41.5264 27.3625C41.5264 26.3911 42.3 25.8261 43.7786 25.7369L46.4128 25.5684V26.4407C46.4128 27.8879 45.1986 28.9188 43.5926 28.9188ZM55.9706 31.2377C55.0207 33.9438 53.9337 34.836 51.6227 34.836C51.4464 34.836 50.8589 34.8161 50.7218 34.7765V32.9228C50.8687 32.9427 51.231 32.9625 51.4171 32.9625C52.4649 32.9625 53.0524 32.5164 53.4147 31.3566L53.6302 30.6727L49.6152 19.4219H52.0927L54.8836 28.5514H54.9326L57.7234 19.4219H60.1324L55.9706 31.2377ZM30.2451 17.2021H32.9772C35.0337 17.2021 36.2088 18.3124 36.2088 20.2651C36.2088 22.2179 35.0337 23.338 32.9674 23.338H30.2451V17.2021Z" fill="black"/>
</svg>
