<svg width="20" height="20" viewBox="0 0 20 20" fill="none" xmlns="http://www.w3.org/2000/svg">
<mask id="mask0_826_6536" style="mask-type:alpha" maskUnits="userSpaceOnUse" x="0" y="0" width="20" height="20">
<rect width="20" height="20" fill="#D9D9D9"/>
</mask>
<g mask="url(#mask0_826_6536)">
<path d="M11.0834 14.4167L7.25004 10.5833C7.16671 10.5 7.10782 10.4097 7.07337 10.3125C7.03837 10.2153 7.02087 10.1111 7.02087 9.99999C7.02087 9.88888 7.03837 9.78471 7.07337 9.68749C7.10782 9.59027 7.16671 9.49999 7.25004 9.41666L11.0834 5.58332C11.2362 5.43055 11.4306 5.35416 11.6667 5.35416C11.9028 5.35416 12.0973 5.43055 12.25 5.58332C12.4028 5.7361 12.4792 5.93055 12.4792 6.16666C12.4792 6.40277 12.4028 6.59721 12.25 6.74999L9.00004 9.99999L12.25 13.25C12.4028 13.4028 12.4792 13.5972 12.4792 13.8333C12.4792 14.0694 12.4028 14.2639 12.25 14.4167C12.0973 14.5694 11.9028 14.6458 11.6667 14.6458C11.4306 14.6458 11.2362 14.5694 11.0834 14.4167Z" fill="#EEF0F4"/>
</g>
</svg>
