<svg width="70" height="48" viewBox="0 0 70 48" fill="none" xmlns="http://www.w3.org/2000/svg">
<rect width="70" height="48" rx="4" fill="#EDFAFF"/>
<path d="M23.8358 25.1113C23.2745 27.8167 20.8379 29.851 17.9174 29.851C17.2474 29.851 16.6024 29.7436 16.0006 29.5457L14.6592 33.4816C15.6829 33.8182 16.7783 34.0002 17.9174 34.0002C22.8816 34.0002 27.0224 30.5409 27.9767 25.944L23.8358 25.1113Z" fill="#EC412A"/>
<path fill-rule="evenodd" clip-rule="evenodd" d="M47.9049 16.2227V27.6032L49.9472 28.4218L48.981 30.6665L46.9614 29.8546C46.5073 29.6642 46.2 29.3741 45.9665 29.0464C45.7423 28.7111 45.576 28.2529 45.576 27.6345V16.2227H47.9049ZM32.4158 24.681C32.4665 21.4265 35.2381 18.8286 38.6012 18.8785C41.4556 18.9218 43.8207 20.8551 44.4419 23.4265L33.4019 27.9893C32.7606 27.0413 32.3961 25.9007 32.4158 24.681ZM34.9416 25.1377C34.9265 25.0012 34.9158 24.8611 34.9198 24.7199C34.9515 22.8024 36.5832 21.2724 38.5646 21.3042C39.6432 21.3181 40.6008 21.7957 41.2482 22.5349L34.9416 25.1377ZM41.016 27.2502C40.3507 27.876 39.4484 28.2574 38.4521 28.2437C37.7692 28.2326 37.1365 28.0349 36.5986 27.7055L35.2649 29.7604C36.1782 30.3187 37.2552 30.649 38.4163 30.6664C40.1063 30.6907 41.6467 30.0487 42.7668 28.9887L41.016 27.2502ZM56.4047 21.3037C56.0069 21.3037 55.6246 21.3659 55.2674 21.4818L54.4727 19.1791C55.0792 18.9833 55.7288 18.8769 56.4047 18.8769C59.3544 18.8769 61.8151 20.9031 62.3794 23.5945L59.9194 24.0795C59.5879 22.4955 58.1403 21.3037 56.4047 21.3037ZM52.3661 29.1874L54.0283 27.3698C53.2859 26.7342 52.8184 25.806 52.8184 24.7714C52.8184 23.7379 53.2859 22.8101 54.0276 22.175L52.3642 20.3574C51.1031 21.4374 50.3086 23.0154 50.3086 24.7714C50.3086 26.5296 51.1037 28.1071 52.3661 29.1874ZM56.4047 28.2402C58.1387 28.2402 59.5861 27.0495 59.9195 25.4678L62.3788 25.9548C61.8118 28.6434 59.3518 30.6668 56.4047 30.6668C55.7283 30.6668 55.0779 30.56 54.4697 30.3633L55.2663 28.0614C55.6241 28.177 56.0067 28.2402 56.4047 28.2402Z" fill="black"/>
<path d="M11.0688 31.7782L13.5489 28.5759C12.4419 27.4561 11.7432 25.8213 11.7432 23.9991C11.7432 22.1783 12.4412 20.5435 13.548 19.4246L11.0665 16.2227C9.18543 18.1251 8 20.904 8 23.9991C8 27.0959 9.18716 29.8758 11.0688 31.7782Z" fill="#1BA7DE"/>
<path d="M15.9987 18.4506C16.6004 18.2533 17.2441 18.1462 17.9139 18.1462C20.8369 18.1462 23.2752 20.1831 23.8345 22.8889L27.9767 22.0604C27.0262 17.4617 22.8826 14 17.9139 14C16.7763 14 15.6813 14.1818 14.6592 14.5167L15.9987 18.4506Z" fill="#FECA2F"/>
</svg>
