<svg width="44" height="24" viewBox="0 0 44 24" fill="none" xmlns="http://www.w3.org/2000/svg">
<rect width="44" height="24" rx="12" fill="#7D8FA9"/>
<circle cx="32" cy="12" r="10" fill="#3B4758"/>
<mask id="mask0_844_15483" style="mask-type:alpha" maskUnits="userSpaceOnUse" x="24" y="4" width="16" height="16">
<rect x="24" y="4" width="16" height="16" fill="#D9D9D9"/>
</mask>
<g mask="url(#mask0_844_15483)">
<path d="M32 18.0003C30.3222 18.0003 28.9027 17.4196 27.7413 16.2583C26.5804 15.0974 26 13.678 26 12.0003C26 10.4669 26.5 9.13626 27.5 8.00826C28.5 6.88071 29.7778 6.22248 31.3333 6.03359C31.6111 6.00026 31.8278 6.10026 31.9833 6.33359C32.1389 6.56693 32.1333 6.81137 31.9667 7.06693C31.7778 7.35582 31.636 7.66137 31.5413 7.98359C31.4471 8.30582 31.4 8.6447 31.4 9.00026C31.4 10.0003 31.75 10.8503 32.45 11.5503C33.15 12.2503 34 12.6003 35 12.6003C35.3444 12.6003 35.6862 12.5503 36.0253 12.4503C36.364 12.3503 36.6667 12.2114 36.9333 12.0336C37.1667 11.878 37.4056 11.8696 37.65 12.0083C37.8944 12.1474 38 12.3669 37.9667 12.6669C37.8111 14.2003 37.1584 15.4725 36.0087 16.4836C34.8584 17.4947 33.5222 18.0003 32 18.0003Z" fill="white"/>
</g>
<mask id="mask1_844_15483" style="mask-type:alpha" maskUnits="userSpaceOnUse" x="4" y="4" width="16" height="16">
<rect x="4" y="4" width="16" height="16" fill="#D9D9D9"/>
</mask>
<g mask="url(#mask1_844_15483)">
<path d="M12.0003 6.66602C11.8114 6.66602 11.6532 6.60202 11.5257 6.47402C11.3977 6.34646 11.3337 6.18824 11.3337 5.99935V5.33268C11.3337 5.14379 11.3977 4.98535 11.5257 4.85735C11.6532 4.72979 11.8114 4.66602 12.0003 4.66602C12.1892 4.66602 12.3477 4.72979 12.4757 4.85735C12.6032 4.98535 12.667 5.14379 12.667 5.33268V5.99935C12.667 6.18824 12.6032 6.34646 12.4757 6.47402C12.3477 6.60202 12.1892 6.66602 12.0003 6.66602ZM12.0003 19.3327C11.8114 19.3327 11.6532 19.2687 11.5257 19.1407C11.3977 19.0131 11.3337 18.8549 11.3337 18.666V17.9993C11.3337 17.8105 11.3977 17.6522 11.5257 17.5247C11.6532 17.3967 11.8114 17.3327 12.0003 17.3327C12.1892 17.3327 12.3477 17.3967 12.4757 17.5247C12.6032 17.6522 12.667 17.8105 12.667 17.9993V18.666C12.667 18.8549 12.6032 19.0131 12.4757 19.1407C12.3477 19.2687 12.1892 19.3327 12.0003 19.3327ZM18.0003 12.666C17.8114 12.666 17.6532 12.602 17.5257 12.474C17.3977 12.3465 17.3337 12.1882 17.3337 11.9993C17.3337 11.8105 17.3977 11.652 17.5257 11.524C17.6532 11.3965 17.8114 11.3327 18.0003 11.3327H18.667C18.8559 11.3327 19.0141 11.3965 19.1417 11.524C19.2697 11.652 19.3337 11.8105 19.3337 11.9993C19.3337 12.1882 19.2697 12.3465 19.1417 12.474C19.0141 12.602 18.8559 12.666 18.667 12.666H18.0003ZM5.33366 12.666C5.14477 12.666 4.98655 12.602 4.85899 12.474C4.73099 12.3465 4.66699 12.1882 4.66699 11.9993C4.66699 11.8105 4.73099 11.652 4.85899 11.524C4.98655 11.3965 5.14477 11.3327 5.33366 11.3327H6.00033C6.18921 11.3327 6.34766 11.3965 6.47566 11.524C6.60321 11.652 6.66699 11.8105 6.66699 11.9993C6.66699 12.1882 6.60321 12.3465 6.47566 12.474C6.34766 12.602 6.18921 12.666 6.00033 12.666H5.33366ZM16.0003 7.99935C15.8781 7.87713 15.817 7.72424 15.817 7.54068C15.817 7.35757 15.8781 7.19935 16.0003 7.06602L16.2337 6.81602C16.3559 6.68268 16.5114 6.61602 16.7003 6.61602C16.8892 6.61602 17.0503 6.68268 17.1837 6.81602C17.317 6.94935 17.3837 7.11046 17.3837 7.29935C17.3837 7.48824 17.317 7.64935 17.1837 7.78268L16.9337 8.01602C16.8003 8.13824 16.6448 8.19935 16.467 8.19935C16.2892 8.19935 16.1337 8.13268 16.0003 7.99935ZM6.81699 17.1827C6.68366 17.0493 6.61699 16.8882 6.61699 16.6993C6.61699 16.5105 6.68366 16.3493 6.81699 16.216L7.06699 15.9827C7.20033 15.8605 7.35588 15.7993 7.53366 15.7993C7.71144 15.7993 7.86699 15.866 8.00033 15.9993C8.12255 16.1216 8.18655 16.2771 8.19233 16.466C8.19766 16.6549 8.13366 16.8105 8.00033 16.9327L7.76699 17.1827C7.64477 17.316 7.48921 17.3827 7.30033 17.3827C7.11144 17.3827 6.95033 17.316 6.81699 17.1827ZM16.217 17.1827L15.9837 16.9327C15.8614 16.7993 15.8003 16.6438 15.8003 16.466C15.8003 16.2882 15.867 16.1327 16.0003 15.9993C16.1225 15.8771 16.2781 15.8131 16.467 15.8073C16.6559 15.802 16.8114 15.866 16.9337 15.9993L17.1837 16.2327C17.317 16.3549 17.3837 16.5105 17.3837 16.6993C17.3837 16.8882 17.317 17.0493 17.1837 17.1827C17.0503 17.316 16.8892 17.3827 16.7003 17.3827C16.5114 17.3827 16.3503 17.316 16.217 17.1827ZM7.06699 7.99935L6.81699 7.76602C6.68366 7.64379 6.61699 7.48824 6.61699 7.29935C6.61699 7.11046 6.68366 6.94935 6.81699 6.81602C6.95033 6.68268 7.11144 6.61602 7.30033 6.61602C7.48921 6.61602 7.65033 6.68268 7.78366 6.81602L8.01699 7.06602C8.13921 7.19935 8.20033 7.3549 8.20033 7.53268C8.20033 7.71046 8.13366 7.86602 8.00033 7.99935C7.8781 8.12157 7.72521 8.18268 7.54166 8.18268C7.35855 8.18268 7.20033 8.12157 7.06699 7.99935ZM12.0003 15.9993C10.8892 15.9993 9.94477 15.6105 9.16699 14.8327C8.38921 14.0549 8.00033 13.1105 8.00033 11.9993C8.00033 10.8882 8.38921 9.94379 9.16699 9.16602C9.94477 8.38824 10.8892 7.99935 12.0003 7.99935C13.1114 7.99935 14.0559 8.38824 14.8337 9.16602C15.6114 9.94379 16.0003 10.8882 16.0003 11.9993C16.0003 13.1105 15.6114 14.0549 14.8337 14.8327C14.0559 15.6105 13.1114 15.9993 12.0003 15.9993Z" fill="white"/>
</g>
</svg>
