<svg width="44" height="24" viewBox="0 0 44 24" fill="none" xmlns="http://www.w3.org/2000/svg">
<rect width="44" height="24" rx="12" fill="#7D8FA9"/>
<circle cx="32" cy="12" r="10" fill="#3B4758"/>
<mask id="mask0_829_197" style="mask-type:alpha" maskUnits="userSpaceOnUse" x="24" y="4" width="16" height="16">
<rect x="24" y="4" width="16" height="16" fill="#D9D9D9"/>
</mask>
<g mask="url(#mask0_829_197)">
<path d="M32 18C30.3222 18 28.9027 17.4193 27.7413 16.258C26.5804 15.0971 26 13.6778 26 12C26 10.4667 26.5 9.13599 27.5 8.00799C28.5 6.88043 29.7778 6.22221 31.3333 6.03332C31.6111 5.99999 31.8278 6.09999 31.9833 6.33332C32.1389 6.56665 32.1333 6.8111 31.9667 7.06665C31.7778 7.35554 31.636 7.6611 31.5413 7.98332C31.4471 8.30554 31.4 8.64443 31.4 8.99999C31.4 9.99999 31.75 10.85 32.45 11.55C33.15 12.25 34 12.6 35 12.6C35.3444 12.6 35.6862 12.55 36.0253 12.45C36.364 12.35 36.6667 12.2111 36.9333 12.0333C37.1667 11.8778 37.4056 11.8693 37.65 12.008C37.8944 12.1471 38 12.3667 37.9667 12.6667C37.8111 14.2 37.1584 15.4722 36.0087 16.4833C34.8584 17.4944 33.5222 18 32 18Z" fill="white"/>
</g>
<mask id="mask1_829_197" style="mask-type:alpha" maskUnits="userSpaceOnUse" x="4" y="4" width="16" height="16">
<rect x="4" y="4" width="16" height="16" fill="#D9D9D9"/>
</mask>
<g mask="url(#mask1_829_197)">
<path d="M12 6.66666C11.8111 6.66666 11.6528 6.60266 11.5253 6.47466C11.3973 6.3471 11.3333 6.18888 11.3333 5.99999V5.33332C11.3333 5.14443 11.3973 4.98599 11.5253 4.85799C11.6528 4.73043 11.8111 4.66666 12 4.66666C12.1888 4.66666 12.3473 4.73043 12.4753 4.85799C12.6028 4.98599 12.6666 5.14443 12.6666 5.33332V5.99999C12.6666 6.18888 12.6028 6.3471 12.4753 6.47466C12.3473 6.60266 12.1888 6.66666 12 6.66666ZM12 19.3333C11.8111 19.3333 11.6528 19.2693 11.5253 19.1413C11.3973 19.0138 11.3333 18.8555 11.3333 18.6667V18C11.3333 17.8111 11.3973 17.6529 11.5253 17.5253C11.6528 17.3973 11.8111 17.3333 12 17.3333C12.1888 17.3333 12.3473 17.3973 12.4753 17.5253C12.6028 17.6529 12.6666 17.8111 12.6666 18V18.6667C12.6666 18.8555 12.6028 19.0138 12.4753 19.1413C12.3473 19.2693 12.1888 19.3333 12 19.3333ZM18 12.6667C17.8111 12.6667 17.6528 12.6027 17.5253 12.4747C17.3973 12.3471 17.3333 12.1889 17.3333 12C17.3333 11.8111 17.3973 11.6527 17.5253 11.5247C17.6528 11.3971 17.8111 11.3333 18 11.3333H18.6666C18.8555 11.3333 19.0137 11.3971 19.1413 11.5247C19.2693 11.6527 19.3333 11.8111 19.3333 12C19.3333 12.1889 19.2693 12.3471 19.1413 12.4747C19.0137 12.6027 18.8555 12.6667 18.6666 12.6667H18ZM5.33329 12.6667C5.1444 12.6667 4.98618 12.6027 4.85863 12.4747C4.73063 12.3471 4.66663 12.1889 4.66663 12C4.66663 11.8111 4.73063 11.6527 4.85863 11.5247C4.98618 11.3971 5.1444 11.3333 5.33329 11.3333H5.99996C6.18885 11.3333 6.34729 11.3971 6.47529 11.5247C6.60285 11.6527 6.66663 11.8111 6.66663 12C6.66663 12.1889 6.60285 12.3471 6.47529 12.4747C6.34729 12.6027 6.18885 12.6667 5.99996 12.6667H5.33329ZM16 7.99999C15.8777 7.87777 15.8166 7.72488 15.8166 7.54132C15.8166 7.35821 15.8777 7.19999 16 7.06666L16.2333 6.81666C16.3555 6.68332 16.5111 6.61666 16.7 6.61666C16.8888 6.61666 17.05 6.68332 17.1833 6.81666C17.3166 6.94999 17.3833 7.1111 17.3833 7.29999C17.3833 7.48888 17.3166 7.64999 17.1833 7.78332L16.9333 8.01666C16.8 8.13888 16.6444 8.19999 16.4666 8.19999C16.2888 8.19999 16.1333 8.13332 16 7.99999ZM6.81663 17.1833C6.68329 17.05 6.61663 16.8889 6.61663 16.7C6.61663 16.5111 6.68329 16.35 6.81663 16.2167L7.06663 15.9833C7.19996 15.8611 7.35552 15.8 7.53329 15.8C7.71107 15.8 7.86663 15.8667 7.99996 16C8.12218 16.1222 8.18618 16.2778 8.19196 16.4667C8.19729 16.6555 8.13329 16.8111 7.99996 16.9333L7.76663 17.1833C7.6444 17.3167 7.48885 17.3833 7.29996 17.3833C7.11107 17.3833 6.94996 17.3167 6.81663 17.1833ZM16.2166 17.1833L15.9833 16.9333C15.8611 16.8 15.8 16.6444 15.8 16.4667C15.8 16.2889 15.8666 16.1333 16 16C16.1222 15.8778 16.2777 15.8138 16.4666 15.808C16.6555 15.8027 16.8111 15.8667 16.9333 16L17.1833 16.2333C17.3166 16.3555 17.3833 16.5111 17.3833 16.7C17.3833 16.8889 17.3166 17.05 17.1833 17.1833C17.05 17.3167 16.8888 17.3833 16.7 17.3833C16.5111 17.3833 16.35 17.3167 16.2166 17.1833ZM7.06663 7.99999L6.81663 7.76666C6.68329 7.64443 6.61663 7.48888 6.61663 7.29999C6.61663 7.1111 6.68329 6.94999 6.81663 6.81666C6.94996 6.68332 7.11107 6.61666 7.29996 6.61666C7.48885 6.61666 7.64996 6.68332 7.78329 6.81666L8.01663 7.06666C8.13885 7.19999 8.19996 7.35555 8.19996 7.53332C8.19996 7.7111 8.13329 7.86666 7.99996 7.99999C7.87774 8.12221 7.72485 8.18332 7.54129 8.18332C7.35818 8.18332 7.19996 8.12221 7.06663 7.99999ZM12 16C10.8888 16 9.9444 15.6111 9.16663 14.8333C8.38885 14.0555 7.99996 13.1111 7.99996 12C7.99996 10.8889 8.38885 9.94443 9.16663 9.16666C9.9444 8.38888 10.8888 7.99999 12 7.99999C13.1111 7.99999 14.0555 8.38888 14.8333 9.16666C15.6111 9.94443 16 10.8889 16 12C16 13.1111 15.6111 14.0555 14.8333 14.8333C14.0555 15.6111 13.1111 16 12 16Z" fill="white"/>
</g>
</svg>
