<svg width="40" height="40" viewBox="0 0 40 40" fill="none" xmlns="http://www.w3.org/2000/svg">
<rect width="40" height="40" rx="6" fill="#1D232C"/>
<mask id="mask0_918_1073" style="mask-type:alpha" maskUnits="userSpaceOnUse" x="8" y="8" width="24" height="24">
<rect x="8" y="8" width="24" height="24" fill="#D9D9D9"/>
</mask>
<g mask="url(#mask0_918_1073)">
<path d="M14 28C13.45 28 12.9793 27.8043 12.588 27.413C12.196 27.021 12 26.55 12 26C12 25.45 12.196 24.979 12.588 24.587C12.9793 24.1957 13.45 24 14 24C14.55 24 15.0207 24.1957 15.412 24.587C15.804 24.979 16 25.45 16 26C16 26.55 15.804 27.021 15.412 27.413C15.0207 27.8043 14.55 28 14 28ZM20 28C19.45 28 18.9793 27.8043 18.588 27.413C18.196 27.021 18 26.55 18 26C18 25.45 18.196 24.979 18.588 24.587C18.9793 24.1957 19.45 24 20 24C20.55 24 21.021 24.1957 21.413 24.587C21.8043 24.979 22 25.45 22 26C22 26.55 21.8043 27.021 21.413 27.413C21.021 27.8043 20.55 28 20 28ZM26 28C25.45 28 24.979 27.8043 24.587 27.413C24.1957 27.021 24 26.55 24 26C24 25.45 24.1957 24.979 24.587 24.587C24.979 24.1957 25.45 24 26 24C26.55 24 27.021 24.1957 27.413 24.587C27.8043 24.979 28 25.45 28 26C28 26.55 27.8043 27.021 27.413 27.413C27.021 27.8043 26.55 28 26 28ZM14 22C13.45 22 12.9793 21.804 12.588 21.412C12.196 21.0207 12 20.55 12 20C12 19.45 12.196 18.979 12.588 18.587C12.9793 18.1957 13.45 18 14 18C14.55 18 15.0207 18.1957 15.412 18.587C15.804 18.979 16 19.45 16 20C16 20.55 15.804 21.0207 15.412 21.412C15.0207 21.804 14.55 22 14 22ZM20 22C19.45 22 18.9793 21.804 18.588 21.412C18.196 21.0207 18 20.55 18 20C18 19.45 18.196 18.979 18.588 18.587C18.9793 18.1957 19.45 18 20 18C20.55 18 21.021 18.1957 21.413 18.587C21.8043 18.979 22 19.45 22 20C22 20.55 21.8043 21.0207 21.413 21.412C21.021 21.804 20.55 22 20 22ZM26 22C25.45 22 24.979 21.804 24.587 21.412C24.1957 21.0207 24 20.55 24 20C24 19.45 24.1957 18.979 24.587 18.587C24.979 18.1957 25.45 18 26 18C26.55 18 27.021 18.1957 27.413 18.587C27.8043 18.979 28 19.45 28 20C28 20.55 27.8043 21.0207 27.413 21.412C27.021 21.804 26.55 22 26 22ZM14 16C13.45 16 12.9793 15.804 12.588 15.412C12.196 15.0207 12 14.55 12 14C12 13.45 12.196 12.9793 12.588 12.588C12.9793 12.196 13.45 12 14 12C14.55 12 15.0207 12.196 15.412 12.588C15.804 12.9793 16 13.45 16 14C16 14.55 15.804 15.0207 15.412 15.412C15.0207 15.804 14.55 16 14 16ZM20 16C19.45 16 18.9793 15.804 18.588 15.412C18.196 15.0207 18 14.55 18 14C18 13.45 18.196 12.9793 18.588 12.588C18.9793 12.196 19.45 12 20 12C20.55 12 21.021 12.196 21.413 12.588C21.8043 12.9793 22 13.45 22 14C22 14.55 21.8043 15.0207 21.413 15.412C21.021 15.804 20.55 16 20 16ZM26 16C25.45 16 24.979 15.804 24.587 15.412C24.1957 15.0207 24 14.55 24 14C24 13.45 24.1957 12.9793 24.587 12.588C24.979 12.196 25.45 12 26 12C26.55 12 27.021 12.196 27.413 12.588C27.8043 12.9793 28 13.45 28 14C28 14.55 27.8043 15.0207 27.413 15.412C27.021 15.804 26.55 16 26 16Z" fill="#586A84"/>
</g>
</svg>
