<svg width="70" height="48" viewBox="0 0 70 48" fill="none" xmlns="http://www.w3.org/2000/svg">
<rect width="70" height="48" rx="4" fill="#EBF3FA"/>
<path d="M29.9482 32.1666H25.9902L28.4658 16.8594H32.4236L29.9482 32.1666Z" fill="#00579F"/>
<path d="M44.2947 17.2337C43.514 16.924 42.2758 16.582 40.7447 16.582C36.8361 16.582 34.0837 18.6663 34.0668 21.6462C34.0343 23.8447 36.0374 25.0659 37.5356 25.7989C39.0669 26.548 39.5874 27.037 39.5874 27.7047C39.5718 28.7301 38.35 29.2028 37.2105 29.2028C35.6303 29.2028 34.7836 28.9591 33.4969 28.3886L32.9757 28.144L32.4219 31.5802C33.3502 32.0031 35.0604 32.3784 36.8361 32.3948C40.989 32.3948 43.6928 30.3428 43.7248 27.1673C43.7406 25.4247 42.6829 24.0895 40.4025 22.9985C39.0182 22.2981 38.1704 21.8258 38.1704 21.1092C38.1866 20.4577 38.8875 19.7905 40.4501 19.7905C41.7368 19.7578 42.6822 20.0671 43.3984 20.3766L43.7564 20.5391L44.2947 17.2337Z" fill="#00579F"/>
<path d="M49.5572 26.7438C49.8832 25.8644 51.1374 22.4609 51.1374 22.4609C51.121 22.4936 51.4627 21.5653 51.6582 20.9955L51.9348 22.3144C51.9348 22.3144 52.6843 25.9785 52.847 26.7438C52.2285 26.7438 50.339 26.7438 49.5572 26.7438ZM54.4428 16.8594H51.3813C50.4372 16.8594 49.72 17.136 49.3126 18.1294L43.4336 32.1664H47.5866C47.5866 32.1664 48.2703 30.2771 48.4172 29.8702C48.8728 29.8702 52.9128 29.8702 53.4989 29.8702C53.6126 30.4076 53.9712 32.1664 53.9712 32.1664H57.6359L54.4428 16.8594Z" fill="#00579F"/>
<path d="M22.684 16.8594L18.8078 27.2974L18.3843 25.1805C17.6676 22.7378 15.4202 20.0838 12.9121 18.7642L16.4625 32.1503H20.648L26.8692 16.8594H22.684Z" fill="#00579F"/>
<path d="M15.2085 16.8594H8.84054L8.77539 17.1687C13.7428 18.4389 17.0326 21.5008 18.3843 25.1811L16.9999 18.1461C16.772 17.1684 16.0717 16.8916 15.2085 16.8594Z" fill="#FAA61A"/>
</svg>
