<svg width="32" height="32" viewBox="0 0 32 32" fill="none" xmlns="http://www.w3.org/2000/svg">
<rect width="32" height="32" rx="16" fill="#1D232C"/>
<mask id="mask0_742_10033" style="mask-type:alpha" maskUnits="userSpaceOnUse" x="6" y="6" width="20" height="20">
<rect x="6" y="6" width="20" height="20" fill="#D9D9D9"/>
</mask>
<g mask="url(#mask0_742_10033)">
<path d="M22.0833 13.4388L18.5417 9.9388L19.7083 8.77214C20.0278 8.45269 20.4203 8.29297 20.8858 8.29297C21.3508 8.29297 21.7431 8.45269 22.0625 8.77214L23.2292 9.9388C23.5486 10.2582 23.7153 10.6438 23.7292 11.0955C23.7431 11.5466 23.5903 11.9319 23.2708 12.2513L22.0833 13.4388ZM9.33333 23.5013C9.09722 23.5013 8.89944 23.4213 8.74 23.2613C8.58 23.1019 8.5 22.9041 8.5 22.668V20.3138C8.5 20.2027 8.52083 20.0952 8.5625 19.9913C8.60417 19.8869 8.66667 19.793 8.75 19.7096L17.3333 11.1263L20.875 14.668L12.2917 23.2513C12.2083 23.3346 12.1147 23.3971 12.0108 23.4388C11.9064 23.4805 11.7986 23.5013 11.6875 23.5013H9.33333Z" fill="#EEF0F4"/>
</g>
</svg>
